PathFileType	4	(x/y/z)	S01_M20_T04.trc
DataRate	CameraRate	NumFrames	NumMarkers	Units	OrigDataRate	OrigDataStartFrame	OrigNumFrames
240	240	4	51	mm	240	361	720
Frame#	Time	Sternum			R.Acromium			L.Acromium			Top.Head			R.ASIS			L.ASIS			R.PSIS			L.PSIS			R.Great.Tro			L.Great.Tro			R.Iliac.Crest			L.Iliac.Crest			V.Sacral			R.Thigh.Upper.Post			R.Thigh.Lower.Ant			R.Thigh.Lower.Post			R.Thigh.Upper.Ant			R.Knee.Lat			R.Knee.Med			R.Shank.Upper.Post			R.Shank.Lower.Ant			R.Shank.Lower.Post			R.Shank.Upper.Ant			R.Ankle.Lat			R.Ankle.Med			R.Heel.Upper			R.Heel.Med			R.Heel.Lat			R.Toe.Lat			R.Toe.Med			R.Toe.Tip			L.Thigh.Upper.Post			L.Thigh.Lower.Ant			L.Thigh.Lower.Post			L.Thigh.Upper.Ant			L.Knee.Lat			L.Knee.Med			L.Shank.Upper.Post			L.Shank.Lower.Ant			L.Shank.Lower.Post			L.Shank.Upper.Ant			L.Ankle.Lat			L.Ankle.Med			L.Heel.Upper			L.Heel.Med			L.Heel.Lat			L.Toe.Lat			L.Toe.Med			L.Toe.Tip			Cervical.Spine			Back			
		X1	Y1	Z1	X2	Y2	Z2	X3	Y3	Z3	X4	Y4	Z4	X5	Y5	Z5	X6	Y6	Z6	X7	Y7	Z7	X8	Y8	Z8	X9	Y9	Z9	X10	Y10	Z10	X11	Y11	Z11	X12	Y12	Z12	X13	Y13	Z13	X14	Y14	Z14	X15	Y15	Z15	X16	Y16	Z16	X17	Y17	Z17	X18	Y18	Z18	X19	Y19	Z19	X20	Y20	Z20	X21	Y21	Z21	X22	Y22	Z22	X23	Y23	Z23	X24	Y24	Z24	X25	Y25	Z25	X26	Y26	Z26	X27	Y27	Z27	X28	Y28	Z28	X29	Y29	Z29	X30	Y30	Z30	X31	Y31	Z31	X32	Y32	Z32	X33	Y33	Z33	X34	Y34	Z34	X35	Y35	Z35	X36	Y36	Z36	X37	Y37	Z37	X38	Y38	Z38	X39	Y39	Z39	X40	Y40	Z40	X41	Y41	Z41	X42	Y42	Z42	X43	Y43	Z43	X44	Y44	Z44	X45	Y45	Z45	X46	Y46	Z46	X47	Y47	Z47	X48	Y48	Z48	X49	Y49	Z49	X50	Y50	Z50	X51	Y51	Z51	

361	1.5	670.93	1115.1	491.15	460.1	1355.6	453.48	779.1	1419.7	427.01	588.12	1692	509.88	534.65	878.69	383.98	801.15	890.39	377.86	621.34	974.36	156.57	725.02	981.05	154.68	444.13	866.09	304	888.57	891.32	267.06	460	977.97	324.92	868.53	1002.1	298.94	677.65	943.58	135.24	396.2	608.84	413.41	387.26	583.68	512.37	391.67	534.64	463.29	395.1	660.57	464.79	376.59	490.15	506.57	518.09	476.85	542.57	365.51	370.93	399.27	393.12	266.68	424.66	375.99	308.15	366.82	375.61	333.07	453.17	407.65	123.03	281.14	491.56	109.91	331.01	478.67	93.174	217.01	499.75	58.315	232.2	438.28	68.285	214.33	333.42	40.839	380.33	446.93	37.164	442.68	376.75	48.815	491.2	956.3	631.19	299.21	1010.7	609.4	393.06	978.98	555.1	344.82	983.73	684.43	339.99	1038.6	509.38	409.96	917.04	482.58	485.42	1069.7	398.39	335.6	1088.5	296.28	376.6	1085.5	324.75	317.2	1079.6	371	393.88	1094.5	112.64	252.12	1007.5	102.84	305.17	1036.2	78.931	190.79	1008.8	50.267	206.87	1067.6	54.968	188.56	1167.6	35.705	373.34	1061.6	41.642	438.26	1131	43.135	482.18	600.33	1464.2	372.51	625.38	1190.7	203.85
362	1.5042	673.6	1111.2	490.76	463.2	1351.9	452.88	782.02	1415.9	428.5	590.87	1688.4	510.41	537.47	875.89	382.49	804.36	886.89	377.45	625.82	971.55	155.33	729.54	978.2	154.07	447.51	864.43	301.83	892.3	888.61	267.16	463.28	974.85	322.16	872.11	999.1	299.2	682.24	940.74	134.36	398.53	608.43	414.09	389.16	584.26	513.24	393.45	534.73	464.65	397.55	660.67	464.97	378.08	490.66	508.34	519.6	477.16	545.03	366.77	371.68	401.01	394.1	267.26	426.06	377.12	308.98	368.36	376.74	333.61	454.78	408.37	124.14	282.01	492.15	110.52	332	479.5	94.461	217.9	500.47	59.481	232.91	439.07	69.693	214.93	333.85	41.394	380.43	447.09	37.264	443.1	376.76	48.784	491.47	960.42	628.96	301.59	1014.4	607.93	395.9	982.84	553.24	347.99	987.62	682.52	342.12	1042.1	508	413.73	919.93	481.9	489.1	1072.2	397.49	338.51	1090.2	294.81	378.56	1087.5	323.9	319.38	1082	369.46	396.54	1094.3	112.57	252.03	1007.3	102.67	304.98	1036.2	78.696	190.57	1008.7	50.029	206.64	1067.6	54.736	188.35	1167.5	35.876	373.23	1061.5	41.804	438.17	1130.8	43.339	482.06	603.74	1461	372.78	629.78	1188.1	203.25
363	1.5083	676.22	1107.4	490.36	466.28	1348.4	452.36	784.89	1412.4	429.96	593.6	1684.9	510.98	540.23	873.3	381.07	807.52	883.61	377.02	630.08	968.89	154.13	733.82	975.49	153.43	450.83	863.01	299.75	895.84	886.07	267.14	466.44	971.98	319.45	875.49	996.34	299.24	686.59	938.04	133.51	400.77	608.04	414.62	390.95	584.83	513.94	395.17	534.83	465.83	399.86	660.77	465.02	379.51	491.18	509.92	521.02	477.5	547.35	368.01	372.42	402.6	395.04	267.85	427.35	378.25	309.79	369.77	377.81	334.16	456.24	409.13	125.2	282.84	492.75	111.1	332.99	480.4	95.685	218.8	501.24	60.591	233.65	439.93	71.035	215.53	334.31	41.936	380.51	447.24	37.353	443.52	376.75	48.76	491.72	964.41	626.85	303.83	1018	606.56	398.57	986.54	551.5	351	991.39	680.73	344.1	1045.5	506.73	417.28	922.76	481.33	492.67	1074.6	396.69	341.26	1091.8	293.49	380.41	1089.4	323.15	321.45	1084.2	368.06	399.05	1094.1	112.6	252	1007.2	102.6	304.87	1036.1	78.587	190.42	1008.6	49.908	206.47	1067.5	54.636	188.19	1167.3	36.063	373.14	1061.3	41.967	438.1	1130.7	43.537	481.97	607.09	1458	373.08	634.04	1185.7	202.71
364	1.5125	678.81	1103.9	489.96	469.32	1345.1	451.9	787.72	1408.9	431.38	596.31	1681.7	511.58	542.92	870.92	379.74	810.61	880.56	376.58	634.13	966.39	152.97	737.87	972.9	152.76	454.09	861.79	297.78	899.21	883.69	267.02	469.5	969.36	316.8	878.71	993.76	299.06	690.68	935.47	132.7	402.94	607.65	414.98	392.64	585.35	514.47	396.84	534.91	466.83	402.05	660.84	464.92	380.86	491.68	511.29	522.35	477.84	549.48	369.24	373.13	404	395.95	268.42	428.51	379.39	310.56	371.03	378.85	334.7	457.55	409.95	126.17	283.62	493.37	111.63	333.95	481.36	96.792	219.68	502.07	61.59	234.39	440.87	72.259	216.11	334.77	42.451	380.55	447.39	37.429	443.94	376.73	48.746	491.95	968.24	624.85	305.92	1021.4	605.27	401.05	990.08	549.86	353.84	995.04	679.03	345.93	1048.7	505.54	420.6	925.54	480.83	496.08	1076.9	395.97	343.86	1093.4	292.29	382.15	1091.2	322.48	323.41	1086.4	366.78	401.41	1094	112.69	252.02	1007	102.6	304.82	1036	78.576	190.33	1008.4	49.88	206.37	1067.3	54.636	188.09	1167.2	36.257	373.07	1061.2	42.127	438.05	1130.6	43.726	481.89	610.4	1455.2	373.4	638.17	1183.5	202.23
